<svg width="24" height="24" viewBox="0 0 24 24" fill="none" xmlns="http://www.w3.org/2000/svg">
<rect width="24" height="24" fill="#1E1E1E"/>
<g clip-path="url(#clip0_0_1)">
<rect width="1920" height="2485" transform="translate(-1055 -95)" fill="#FAFAFA"/>
<g clip-path="url(#clip1_0_1)">
<rect width="935" height="2485" transform="translate(-562 -95)" fill="#FAFAFA"/>
<path d="M12 13.5C12.8284 13.5 13.5 12.8284 13.5 12C13.5 11.1716 12.8284 10.5 12 10.5C11.1716 10.5 10.5 11.1716 10.5 12C10.5 12.8284 11.1716 13.5 12 13.5Z" fill="#262626"/>
<path d="M6.5 13.5C7.32843 13.5 8 12.8284 8 12C8 11.1716 7.32843 10.5 6.5 10.5C5.67157 10.5 5 11.1716 5 12C5 12.8284 5.67157 13.5 6.5 13.5Z" fill="#262626"/>
<path d="M17.5 13.5C18.3284 13.5 19 12.8284 19 12C19 11.1716 18.3284 10.5 17.5 10.5C16.6716 10.5 16 11.1716 16 12C16 12.8284 16.6716 13.5 17.5 13.5Z" fill="#262626"/>
</g>
</g>
<defs>
<clipPath id="clip0_0_1">
<rect width="1920" height="2485" fill="white" transform="translate(-1055 -95)"/>
</clipPath>
<clipPath id="clip1_0_1">
<rect width="935" height="2485" fill="white" transform="translate(-562 -95)"/>
</clipPath>
</defs>
</svg>
